HIERARCHY
ROOT Hips
{
	OFFSET 0.000000 0.000000 0.000000
	CHANNELS 6 Xposition Yposition Zposition Yrotation Xrotation Zrotation 
	JOINT LeftHip
	{
		OFFSET 0.089933 0.000579 -0.000064
		CHANNELS 3 Yrotation Xrotation Zrotation
		JOINT LeftKnee
		{
			OFFSET 0.000000 -0.450274 0.000001
			CHANNELS 3 Yrotation Xrotation Zrotation
			JOINT LeftAnkle
			{
				OFFSET 0.000000 -0.455087 0.000283
				CHANNELS 3 Yrotation Xrotation Zrotation
				JOINT LeftToe
				{
					OFFSET 0.000000 -0.083893 0.183160
					CHANNELS 3 Yrotation Xrotation Zrotation
					End Site
					{
						OFFSET 0.000000 0.000000 0.000000
					}
				}
			}
		}
	}
	JOINT RightHip
	{
		OFFSET -0.089933 0.000604 -0.000067
		CHANNELS 3 Yrotation Xrotation Zrotation
		JOINT RightKnee
		{
			OFFSET 0.000000 -0.450274 0.000001
			CHANNELS 3 Yrotation Xrotation Zrotation
			JOINT RightAnkle
			{
				OFFSET 0.000000 -0.455087 0.000283
				CHANNELS 3 Yrotation Xrotation Zrotation
				JOINT RightToe
				{
					OFFSET 0.000000 -0.083893 0.183160
					CHANNELS 3 Yrotation Xrotation Zrotation
					End Site
					{
						OFFSET 0.000000 0.000000 0.000000
					}
				}
			}
		}
	}
	JOINT Chest
	{
		OFFSET 0.000000 0.108199 -0.012022
		CHANNELS 3 Yrotation Xrotation Zrotation
		JOINT Chest3
		{
			OFFSET 0.000000 0.206168 -0.010257
			CHANNELS 3 Yrotation Xrotation Zrotation
			JOINT Chest4
			{
				OFFSET 0.000000 0.098558 -0.000242
				CHANNELS 3 Yrotation Xrotation Zrotation
				JOINT Neck
				{
					OFFSET 0.000000 0.137369 0.000000
					CHANNELS 3 Yrotation Xrotation Zrotation
					JOINT Head
					{
						OFFSET 0.000000 0.088151 0.000814
						CHANNELS 3 Yrotation Xrotation Zrotation
						End Site
						{
							OFFSET 0.000000 0.000000 0.000000
						}
					}
				}
				JOINT LeftCollar
				{
					OFFSET 0.030193 0.077146 0.000000
					CHANNELS 3 Yrotation Xrotation Zrotation
					JOINT LeftShoulder
					{
						OFFSET 0.144780 0.000000 0.000000
						CHANNELS 3 Yrotation Xrotation Zrotation
						JOINT LeftElbow
						{
							OFFSET 0.276846 0.000000 0.000000
							CHANNELS 3 Yrotation Xrotation Zrotation
							JOINT LeftWrist
							{
								OFFSET 0.268574 0.000000 0.000066
								CHANNELS 3 Yrotation Xrotation Zrotation
								End Site
								{
									OFFSET 0.000000 0.000000 0.000000
								}
							}
						}
					}
				}
				JOINT RightCollar
				{
					OFFSET -0.030193 0.077146 0.000000
					CHANNELS 3 Yrotation Xrotation Zrotation
					JOINT RightShoulder
					{
						OFFSET -0.144780 0.000000 0.000000
						CHANNELS 3 Yrotation Xrotation Zrotation
						JOINT RightElbow
						{
							OFFSET -0.276846 0.000000 0.000000
							CHANNELS 3 Yrotation Xrotation Zrotation
							JOINT RightWrist
							{
								OFFSET -0.268574 0.000000 0.000066
								CHANNELS 3 Yrotation Xrotation Zrotation
								End Site
								{
									OFFSET 0.000000 0.000000 0.000000
								}
							}
						}
					}
				}
			}
		}
	}
}
MOTION
Frames: 10
Frame Time: 0.016667
0.000000 0.000000 0.000000 -156.023451 4.571850 0.839837 13.138337 -5.636423 -0.679092 -0.949990 6.541996 0.410401 -2.391824 -3.391856 -12.636360 0.000000 -0.000000 0.000000 2.720655 -22.418655 3.868072 -2.419867 33.755092 -0.554526 -26.368043 0.083234 -12.522229 -0.509484 -10.349328 14.796912 -0.675216 0.515023 -1.558988 -0.458108 -5.371834 -1.391532 -0.224742 6.005920 -0.541819 -2.770268 8.579865 2.173777 -6.503977 -19.898046 5.622232 -1.850829 2.506542 -10.338342 -4.929721 -15.820923 -67.161931 -0.360218 -4.708668 -4.358876 -1.422526 4.989011 3.022540 1.301663 7.892089 6.234818 8.891127 -24.797188 79.981053 1.957651 14.058860 -6.358574 7.105123 5.828437 14.871529 
0.000000 0.000000 0.000000 -157.133307 4.494922 0.870526 14.090426 -5.053875 -0.799363 -0.718419 6.244532 0.208238 -2.502697 -3.450637 -12.446357 0.000000 -0.000000 0.000000 2.930312 -23.081138 3.669395 -2.190734 34.537738 -0.036908 -25.868105 0.232470 -11.877275 -0.353730 -10.011739 13.718531 -0.780391 0.561702 -1.573108 -0.550266 -5.330154 -1.403973 -0.259844 6.021808 -0.549926 -2.803793 8.652432 2.154869 -6.554111 -19.762463 5.594618 -1.896171 2.522339 -10.351148 -4.910522 -15.799636 -66.901431 -0.163394 -4.897825 -4.367576 -1.383909 5.005623 2.932760 1.266149 7.933428 6.263281 8.633876 -24.683474 80.099843 2.017850 14.301620 -6.295462 7.138315 5.792153 14.855484 
0.000000 0.000000 0.000000 -158.140275 4.422241 0.893256 15.146487 -4.491449 -0.871205 -0.480362 5.971622 -0.032565 -2.836429 -3.489581 -12.276866 0.000000 -0.000000 0.000000 3.286536 -23.637494 3.335983 -1.823279 35.005334 0.674722 -25.169704 0.322505 -10.878918 -0.222787 -9.606648 12.170634 -0.917528 0.592688 -1.576337 -0.671838 -5.302419 -1.406687 -0.305710 6.032534 -0.555452 -2.841794 8.743763 2.124254 -6.605410 -19.592693 5.544355 -1.939105 2.540302 -10.379080 -4.869961 -15.845504 -66.675020 0.168546 -5.007173 -4.355943 -1.325676 5.053852 2.812169 1.224880 7.974356 6.287055 8.195948 -24.522732 80.237353 2.195659 14.617546 -6.150778 7.181068 5.724335 14.842283 
0.000000 0.000000 0.000000 -159.053770 4.346491 0.887099 16.027183 -3.942609 -0.915918 -0.302504 5.708234 -0.231915 -3.035884 -3.521254 -12.080491 0.000000 -0.000000 0.000000 3.535974 -24.059547 3.061774 -1.603525 35.070887 1.218722 -24.608537 0.364752 -10.035541 -0.072185 -8.817128 10.816897 -1.070103 0.626526 -1.558019 -0.809107 -5.272192 -1.390141 -0.356779 6.044211 -0.554282 -2.875095 8.827371 2.096631 -6.649524 -19.437331 5.498355 -1.970772 2.571256 -10.396718 -4.885804 -15.941525 -66.516738 0.541334 -5.168364 -4.322163 -1.263312 5.089284 2.703221 1.187958 7.996011 6.305104 7.685905 -24.321370 80.364260 2.397562 14.958380 -5.997129 7.218909 5.663565 14.836646 
0.000000 0.000000 0.000000 -159.848539 4.266140 0.841156 16.599679 -3.412470 -0.933230 -0.248130 5.448783 -0.365338 -2.941233 -3.553768 -11.856521 0.000000 -0.000000 0.000000 3.547566 -24.316898 2.931744 -1.638166 34.658858 1.446599 -24.303802 0.352999 -9.517794 0.145048 -7.408734 10.145535 -1.245720 0.666537 -1.512356 -0.969355 -5.236534 -1.349167 -0.415596 6.057931 -0.544734 -2.901130 8.899013 2.075257 -6.683712 -19.304227 5.462300 -1.989461 2.623850 -10.395896 -4.992340 -16.100166 -66.439492 0.974599 -5.466548 -4.256893 -1.194283 5.087610 2.618449 1.156592 7.988424 6.314281 7.106401 -24.067896 80.485245 2.616706 15.341108 -5.851385 7.249458 5.621331 14.844949 
0.000000 0.000000 0.000000 -160.549716 4.181388 0.766094 16.998917 -2.897660 -0.928145 -0.253308 5.197157 -0.452654 -2.711792 -3.580975 -11.607365 0.000000 -0.000000 0.000000 3.449906 -24.437806 2.856598 -1.822163 33.844657 1.519022 -24.142103 0.298400 -9.152384 0.367107 -5.624854 9.646893 -1.436771 0.710837 -1.445322 -1.145258 -5.197128 -1.289085 -0.479607 6.073020 -0.528524 -2.922276 8.963356 2.057720 -6.710932 -19.184759 5.432141 -1.997002 2.690377 -10.385712 -5.157270 -16.314271 -66.424922 1.449407 -5.817882 -4.172642 -1.119680 5.072871 2.545211 1.129911 7.961136 6.319243 6.456396 -23.775519 80.590320 2.861376 15.748275 -5.695177 7.274595 5.586439 14.860115 
0.000000 0.000000 0.000000 -161.242233 4.087252 0.673806 17.346939 -2.380121 -0.933940 -0.193898 4.950311 -0.479551 -2.468799 -3.596272 -11.291406 0.000000 -0.000000 0.000000 3.374901 -24.482181 2.774205 -2.128437 32.773780 1.528399 -24.108133 0.249583 -8.935606 0.466541 -3.906290 8.478232 -1.603957 0.770286 -1.364676 -1.301183 -5.144352 -1.216792 -0.535616 6.092999 -0.506906 -2.936346 9.008047 2.051618 -6.731395 -19.101328 5.422725 -1.989795 2.758009 -10.366528 -5.357763 -16.538106 -66.462081 1.812746 -6.099862 -4.091706 -1.058933 5.072418 2.488953 1.114995 7.924909 6.330955 5.836679 -23.490287 80.633754 3.060467 16.081448 -5.556076 7.286835 5.563485 14.865633 
0.000000 0.000000 0.000000 -161.949769 3.975148 0.562483 17.674100 -1.848445 -0.962495 0.009180 4.702840 -0.428372 -2.279581 -3.590321 -10.880644 0.000000 -0.000000 0.000000 3.368519 -24.446489 2.663525 -2.597108 31.432293 1.479254 -24.229891 0.209691 -8.930827 0.367748 -2.320775 5.816194 -1.732685 0.856532 -1.268670 -1.424313 -5.067860 -1.130736 -0.578725 6.121721 -0.478795 -2.940221 9.023521 2.063608 -6.743148 -19.071365 5.446509 -1.959063 2.825234 -10.336860 -5.617152 -16.776214 -66.559348 2.030052 -6.279877 -3.999974 -1.017499 5.101679 2.457627 1.117121 7.881129 6.355554 5.266817 -23.222435 80.589049 3.207243 16.321399 -5.438793 7.282524 5.557689 14.854569 
0.000000 0.000000 0.000000 -162.648455 3.853002 0.434384 17.950349 -1.314552 -1.003266 0.276833 4.460105 -0.319537 -2.075574 -3.572829 -10.403157 0.000000 -0.000000 0.000000 3.386028 -24.334635 2.542613 -3.178384 29.834042 1.393290 -24.469162 0.161734 -9.083088 0.161352 -0.908938 2.451106 -1.837440 0.958502 -1.159690 -1.527321 -4.977460 -1.033095 -0.613827 6.155545 -0.445501 -2.936526 9.020145 2.088367 -6.748056 -19.075906 5.493477 -1.913506 2.894150 -10.298053 -5.912609 -17.028109 -66.706955 2.135900 -6.389393 -3.902590 -0.988928 5.144873 2.443930 1.131194 7.828905 6.387139 4.724880 -22.967063 80.486885 3.307046 16.488296 -5.342685 7.266203 5.563732 14.832776 
0.000000 0.000000 0.000000 -163.352038 3.740956 0.307455 18.206134 -0.795424 -1.054746 0.495893 4.235900 -0.196427 -1.774286 -3.565724 -9.901418 0.000000 -0.000000 0.000000 3.422633 -24.218977 2.410796 -3.723074 28.169312 1.368229 -24.716794 0.130938 -9.209907 0.000000 -0.000000 0.000000 -1.922604 1.052406 -1.051374 -1.612876 -4.894253 -0.936094 -0.642419 6.186601 -0.411791 -2.931753 9.015385 2.115379 -6.752072 -19.082905 5.544473 -1.875656 2.957129 -10.254136 -6.151101 -17.238170 -66.871848 2.079787 -6.400671 -3.844035 -0.975288 5.182423 2.430789 1.148564 7.775702 6.418112 4.248258 -22.746518 80.371843 3.305368 16.543884 -5.291607 7.243082 5.570245 14.803014 
